<svg width="143" height="103" viewBox="0 0 143 103" fill="none" xmlns="http://www.w3.org/2000/svg">
<path d="M0.00286211 48.8949C0.0486112 48.6835 0.105801 48.472 0.140112 48.2605C0.589025 45.5112 1.90717 43.2735 4.41765 41.7589C5.59568 41.0473 6.91382 40.6958 8.30059 40.6415C9.6073 40.59 10.9197 40.6072 12.2293 40.6043C13.516 40.6043 14.8027 40.6215 16.0894 40.6243C19.1031 40.6329 22.1168 40.6358 25.1305 40.6472C27.2178 40.6558 29.3023 40.6843 31.3896 40.6872C36.2819 40.6986 41.1713 40.6958 46.0636 40.7129C48.9601 40.7244 51.8594 40.7644 54.7559 40.7815C55.222 40.7815 55.6966 40.7586 56.1541 40.6843C56.6516 40.6015 57.1005 40.3271 57.3779 39.927C57.6152 39.5841 57.7954 39.2011 57.9469 38.8124C60.5546 32.1279 62.8049 25.3263 65.2267 18.5789C66.6564 14.6036 68.0631 10.6198 69.4814 6.63879C69.8474 5.61282 70.3049 4.62972 70.9139 3.71235C72.1577 1.84046 73.9362 0.711605 76.2065 0.268639C77.13 0.088594 78.0622 0.00572128 79.0029 0.00572128C92.8906 0.00286343 106.775 0 120.663 0C124.326 0 127.989 0.00572093 131.651 0.0142945C132.544 0.0142945 133.436 0.00285854 134.322 0.125746C138.528 0.703032 141.559 3.76379 142.019 7.3361C142.463 10.7484 141.219 13.5719 138.379 15.7153C137.199 16.607 135.797 17.0356 134.302 17.1785C133.75 17.23 133.193 17.2471 132.638 17.2471C126.064 17.2528 119.494 17.2528 112.92 17.2557C110.301 17.2557 107.682 17.2614 105.063 17.2643C101.32 17.27 97.5742 17.2786 93.8313 17.2757C91.6983 17.2757 89.5652 17.2471 87.435 17.2443C86.9861 17.2443 86.5343 17.27 86.094 17.3471C85.5736 17.4386 85.1218 17.7444 84.8388 18.1673C84.63 18.4846 84.4613 18.8361 84.3327 19.1933C82.3226 24.7947 80.3182 30.3989 78.3138 36.0003C77.7934 37.4578 77.2673 38.9153 76.7469 40.3728C76.7069 40.4843 76.6726 40.5986 76.6211 40.7529C76.7898 40.7529 76.9156 40.7529 77.0385 40.7529C78.0364 40.7529 79.0315 40.7444 80.0294 40.7444C87.7381 40.7444 95.4468 40.7444 103.156 40.7444C107.502 40.7444 111.848 40.7529 116.197 40.7586C117.078 40.7586 117.958 40.7472 118.839 40.7672C121.91 40.8387 124.475 41.9361 126.282 44.3281C128.352 47.0688 128.535 50.0295 127.091 53.0845C126.425 54.4935 125.447 55.6852 124.097 56.5768C122.859 57.3942 121.472 57.8457 119.98 57.9372C118.847 58.0058 117.709 58.0029 116.574 58.0029C110.164 58.0086 103.753 58.0029 97.3454 58.0058C92.6047 58.0058 87.8639 58.0201 83.1232 58.0201C80.1895 58.0201 77.2587 58.0058 74.325 58C73.756 58 73.1899 57.9858 72.6209 58.0058C71.623 58.0372 70.7395 58.6402 70.3706 59.5204C70.1247 60.1063 69.9189 60.7064 69.7073 61.3037C66.3304 70.7403 62.9564 80.177 59.5824 89.6136C58.7561 91.9256 57.9669 94.2519 57.1005 96.5496C55.9854 99.5075 53.798 101.371 50.5727 102.117C50.2954 102.18 50.0123 102.225 49.7292 102.28H47.9221C47.8163 102.257 47.7134 102.222 47.6076 102.211C46.847 102.122 46.0836 102.028 45.3773 101.748C41.8146 100.336 39.8846 97.9442 39.5643 94.6119C39.43 93.2316 39.6501 91.8884 40.0962 90.5795C40.7853 88.5619 41.4801 86.5443 42.1921 84.5323C45.2658 75.8245 48.3425 67.1223 51.4191 58.4144C51.462 58.2944 51.4991 58.1715 51.5477 58.0315C51.4105 58.0258 51.319 58.0201 51.2275 58.0172C46.5354 57.9972 41.8404 57.9772 37.1482 57.9572C32.6991 57.9372 28.25 57.9172 23.7981 57.9C21.8738 57.8915 19.9494 57.8886 18.028 57.88C15.0972 57.8629 12.1664 57.8429 9.23273 57.8257C8.12046 57.82 7.00819 57.6485 5.97311 57.2599C2.58768 55.9853 0.614757 53.6304 0.120095 50.161C0.0972206 50.0009 0.0400304 49.8466 0 49.6894V48.8978L0.00286211 48.8949Z" fill="black"/>
</svg>
