<?xml version="1.0" encoding="UTF-8"?>
<svg id="_Слой_1" data-name="Слой 1" xmlns="http://www.w3.org/2000/svg" viewBox="0 0 1315 1294.68">
  <path d="m414,647.2c.16-.74.36-1.48.48-2.22,1.57-9.62,6.18-17.45,14.96-22.75,4.12-2.49,8.73-3.72,13.58-3.91,4.57-.18,9.16-.12,13.74-.13,4.5,0,9,.06,13.5.07,10.54.03,21.08.04,31.62.08,7.3.03,14.59.13,21.89.14,17.11.04,34.21.03,51.32.09,10.13.04,20.27.18,30.4.24,1.63,0,3.29-.08,4.89-.34,1.74-.29,3.31-1.25,4.28-2.65.83-1.2,1.46-2.54,1.99-3.9,9.12-23.39,16.99-47.19,25.46-70.8,5-13.91,9.92-27.85,14.88-41.78,1.28-3.59,2.88-7.03,5.01-10.24,4.35-6.55,10.57-10.5,18.51-12.05,3.23-.63,6.49-.92,9.78-.92,48.57-.01,97.13-.02,145.7-.02,12.81,0,25.62.02,38.43.05,3.12,0,6.24-.04,9.34.39,14.71,2.02,25.31,12.73,26.92,25.23,1.55,11.94-2.8,21.82-12.73,29.32-4.13,3.12-9.03,4.62-14.26,5.12-1.93.18-3.88.24-5.82.24-22.99.02-45.97.02-68.96.03-9.16,0-18.32.02-27.48.03-13.09.02-26.19.05-39.28.04-7.46,0-14.92-.1-22.37-.11-1.57,0-3.15.09-4.69.36-1.82.32-3.4,1.39-4.39,2.87-.73,1.11-1.32,2.34-1.77,3.59-7.03,19.6-14.04,39.21-21.05,58.81-1.82,5.1-3.66,10.2-5.48,15.3-.14.39-.26.79-.44,1.33.59,0,1.03,0,1.46,0,3.49,0,6.97-.03,10.46-.03,26.96,0,53.92,0,80.88,0,15.2,0,30.4.03,45.61.05,3.08,0,6.16-.04,9.24.03,10.74.25,19.71,4.09,26.03,12.46,7.24,9.59,7.88,19.95,2.83,30.64-2.33,4.93-5.75,9.1-10.47,12.22-4.33,2.86-9.18,4.44-14.4,4.76-3.96.24-7.94.23-11.91.23-22.42.02-44.84,0-67.25.01-16.58,0-33.16.05-49.74.05-10.26,0-20.51-.05-30.77-.07-1.99,0-3.97-.05-5.96.02-3.49.11-6.58,2.22-7.87,5.3-.86,2.05-1.58,4.15-2.32,6.24-11.81,33.02-23.61,66.04-35.41,99.06-2.89,8.09-5.65,16.23-8.68,24.27-3.9,10.35-11.55,16.87-22.83,19.48-.97.22-1.96.38-2.95.57h-6.32c-.37-.08-.73-.2-1.1-.24-2.66-.31-5.33-.64-7.8-1.62-12.46-4.94-19.21-13.31-20.33-24.97-.47-4.83.3-9.53,1.86-14.11,2.41-7.06,4.84-14.12,7.33-21.16,10.75-30.47,21.51-60.92,32.27-91.39.15-.42.28-.85.45-1.34-.48-.02-.8-.04-1.12-.05-16.41-.07-32.83-.14-49.24-.21-15.56-.07-31.12-.14-46.69-.2-6.73-.03-13.46-.04-20.18-.07-10.25-.06-20.5-.13-30.76-.19-3.89-.02-7.78-.62-11.4-1.98-11.84-4.46-18.74-12.7-20.47-24.84-.08-.56-.28-1.1-.42-1.65v-2.77Z"/>
</svg>